<svg preserveAspectRatio="xMidYMid meet" width="100%" height="100%" overflow="visible" style="display: block;" viewBox="0 0 134.541 69.6498" fill="none" xmlns="http://www.w3.org/2000/svg">
<g id="Vector" filter="url(#filter0_ii_142_4531)">
<path d="M62.0403 1.73804C63.4774 1.23855 65.6331 0.660203 66.8307 0.458657C67.96 0.264478 76.4736 0.0858815 102.058 1.24397e-05C103.84 -0.00596617 104.746 2.14456 103.491 3.40814L44.3624 62.9119C43.1326 64.1496 41.0209 63.3286 40.9592 61.5849C40.9149 60.3313 40.8797 59.1831 40.8797 58.6967C40.8797 57.3822 40.9319 54.4379 41.0321 44.6761C41.2019 28.0354 41.2716 26.7122 42.1775 23.4261C42.7044 21.4983 43.9586 18.3437 44.9602 16.4158C46.2537 13.9228 47.7866 11.8898 50.2733 9.36173C52.3506 7.25426 54.9113 5.17308 56.5966 4.23107C58.1513 3.36355 60.6031 2.2419 62.0403 1.73804Z" fill="var(--fill-0, #5E84A6)"/>
<path d="M15.7692 22.3308C16.6619 20.7315 20.3331 16.6481 26.7088 10.1723C29.1229 7.71938 31.3631 5.47087 33.0834 3.75294C34.3337 2.50432 36.4523 3.36951 36.4606 5.13652C36.4947 12.4327 36.5477 29.1257 36.5395 61.4741C36.539 63.2639 34.3679 64.1561 33.1134 62.8795L26.6347 56.2869C18.5868 48.098 16.4964 45.7189 15.473 43.5807C14.7806 42.1348 14.0185 40.5575 13.7833 40.0756C13.5482 39.5936 13.2607 37.1313 13.1432 34.5988C12.9777 31.0498 13.0996 29.398 13.6788 27.3694C14.0925 25.9235 15.0332 23.6583 15.7692 22.3308Z" fill="var(--fill-0, #5E84A6)"/>
<path d="M79.46 38.174C80.8971 37.5913 83.2488 36.8508 84.6859 36.5222C86.3538 36.141 89.0321 35.9877 92.0893 36.0929C95.7082 36.2199 97.7332 36.5354 100.364 37.3898C102.28 38.0119 105.119 39.2606 106.678 40.1632C108.733 41.3555 112.429 44.7491 133.946 66.2135C135.208 67.4722 134.331 69.6418 132.549 69.6419L49.5293 69.6498C47.749 69.65 46.8558 67.499 48.1124 66.238L58.1644 56.1511C66.0773 48.2163 72.6968 41.9464 74.2341 40.9387C75.6712 39.9967 78.0228 38.7524 79.46 38.174Z" fill="var(--fill-0, #5E84A6)"/>
<path d="M1.26727 60.2302C0.235154 58.1096 0.19596 57.6977 0.0696672 47.0859L0.000146881 41.0564C-0.0205504 39.2614 2.15102 38.3501 3.41747 39.6224L29.4607 65.7858C30.6861 67.0168 29.8677 69.1174 28.1325 69.1948L24.7011 69.3479C19.558 69.5801 15.6734 69.5451 13.7006 69.2515C12.0196 68.9974 9.6026 68.2482 8.31354 67.5778C7.02884 66.9119 5.15622 65.4791 4.15894 64.3925C3.15731 63.3059 1.85519 61.4351 1.26727 60.2302Z" fill="var(--fill-0, #5E84A6)"/>
</g>
<defs>
<filter id="filter0_ii_142_4531" x="-4" y="-4" width="142.541" height="77.6498" filterUnits="userSpaceOnUse" color-interpolation-filters="sRGB">
<feFlood flood-opacity="0" result="BackgroundImageFix"/>
<feBlend mode="normal" in="SourceGraphic" in2="BackgroundImageFix" result="shape"/>
<feColorMatrix in="SourceAlpha" type="matrix" values="0 0 0 0 0 0 0 0 0 0 0 0 0 0 0 0 0 0 127 0" result="hardAlpha"/>
<feOffset dx="-4" dy="-4"/>
<feGaussianBlur stdDeviation="4"/>
<feComposite in2="hardAlpha" operator="arithmetic" k2="-1" k3="1"/>
<feColorMatrix type="matrix" values="0 0 0 0 1 0 0 0 0 1 0 0 0 0 1 0 0 0 0.12 0"/>
<feBlend mode="normal" in2="shape" result="effect1_innerShadow_142_4531"/>
<feColorMatrix in="SourceAlpha" type="matrix" values="0 0 0 0 0 0 0 0 0 0 0 0 0 0 0 0 0 0 127 0" result="hardAlpha"/>
<feOffset dx="4" dy="4"/>
<feGaussianBlur stdDeviation="4"/>
<feComposite in2="hardAlpha" operator="arithmetic" k2="-1" k3="1"/>
<feColorMatrix type="matrix" values="0 0 0 0 0.215598 0 0 0 0 0.273408 0 0 0 0 0.360123 0 0 0 0.4 0"/>
<feBlend mode="normal" in2="effect1_innerShadow_142_4531" result="effect2_innerShadow_142_4531"/>
</filter>
</defs>
</svg>
